<?xml version="1.0" encoding="utf-8"?>
<!-- Generator: Adobe Illustrator 21.1.0, SVG Export Plug-In . SVG Version: 6.00 Build 0)  -->
<svg version="1.1" id="Camada_1" xmlns="http://www.w3.org/2000/svg" xmlns:xlink="http://www.w3.org/1999/xlink" x="0px" y="0px"
	 viewBox="0 0 4000 4000" style="enable-background:new 0 0 4000 4000;" xml:space="preserve">
<style type="text/css">
	.st0{fill:#FFFFFF;}
	.st1{fill:#C44345;}
	.st2{fill:#3CA2B4;}
</style>
<g>
	<polygon class="st0" points="215.7,2311.1 1569.2,2804.2 2034,1536.1 680.5,1043 	"/>
	<polygon class="st0" points="3373.3,2835 2061,2378.7 2543.7,998.7 3856.1,1455 	"/>
	<path class="st1" d="M2087.2,3499.8c-109.3-14.7-234.6-32.3-360.2-47.9c-36.5-4.5-42.1-18.3-31.1-51.9
		c102.6-310.8,203.9-622,305.5-933.2c142.2-435.4,283.9-870.9,426.5-1306.1c93.3-284.9,188-569.4,281.9-854.1
		c19.8-60,39.3-120.2,58.9-180.3c7.2-22.2,17.8-30.9,42.9-19.7c331.4,148.2,596.5,373.1,791.1,679.1
		c205.6,323,292,677.7,268.4,1057.7c-20.7,333-129.7,637.4-326.1,908.3c-277.6,382.9-652,618.5-1115.4,710.9
		C2323.5,3483.9,2213.7,3486.6,2087.2,3499.8z M3313.4,2147c-30.7,2.5-49.7,4.6-68.7,5.5c-252,12.7-504,29.4-756.2,35.6
		c-85.2,2.1-132.7,27.2-147.6,111.6c-5.5,31-19.1,60.6-31.6,98.8c92.3-6.3,174.5-12.4,256.7-17.5c290.4-17.7,580.8-36.3,871.3-51.5
		c56.6-3,93.6-17.4,103.8-77.9c4.3-25.4,15.2-50,25.8-73.8c13.3-29.8,5.6-49.4-18.4-71.4c-273.6-249.6-546-500.4-819-750.7
		c-10.4-9.5-22.8-16.7-38.6-28.2c-22.9,62.9-44.8,119.1-62.9,176.5c-3.3,10.5,4.5,29.9,13.6,38.3
		c109.7,100.4,220.5,199.5,331.1,298.8C3083,1940.4,3193.6,2039.5,3313.4,2147z"/>
	<path class="st2" d="M2025.2,399c109.3,14.7,234.6,32.3,360.2,47.9c36.5,4.5,42.1,18.3,31.1,51.9
		c-102.6,310.8-203.9,622-305.5,933.2c-142.2,435.4-283.9,870.9-426.5,1306.1c-93.3,284.9-188,569.4-281.9,854.1
		c-19.8,60-39.3,120.2-58.9,180.3c-7.2,22.2-17.8,30.9-42.9,19.7C969.4,3644,704.3,3419,509.6,3113
		c-205.6-323-292-677.7-268.4-1057.7c20.7-333,129.7-637.4,326.1-908.3C845,764,1219.3,528.5,1682.7,436.1
		C1788.9,414.9,1898.8,412.1,2025.2,399z M799.1,1751.7c30.7-2.5,49.7-4.6,68.7-5.5c252-12.7,504-29.4,756.2-35.6
		c85.2-2.1,132.7-27.2,147.6-111.6c5.5-31,19.1-60.6,31.6-98.8c-92.3,6.3-174.5,12.4-256.7,17.5c-290.4,17.7-580.8,36.3-871.3,51.5
		c-56.6,3-93.6,17.4-103.8,77.9c-4.3,25.4-15.2,50-25.8,73.8c-13.3,29.8-5.6,49.4,18.4,71.4c273.6,249.6,546,500.4,819,750.7
		c10.4,9.5,22.8,16.7,38.6,28.2c22.9-62.9,44.8-119.1,62.9-176.5c3.3-10.5-4.5-29.9-13.6-38.3c-109.7-100.4-220.5-199.5-331.1-298.8
		C1029.4,1958.3,918.9,1859.2,799.1,1751.7z"/>
</g>
</svg>
